<?xml version="1.0" standalone="no"?>
<!DOCTYPE svg PUBLIC "-//W3C//DTD SVG 20010904//EN"
 "http://www.w3.org/TR/2001/REC-SVG-20010904/DTD/svg10.dtd">
<svg version="1.0" xmlns="http://www.w3.org/2000/svg"
 width="100.000000pt" height="100.000000pt" viewBox="0 0 100.000000 100.000000"
 preserveAspectRatio="xMidYMid meet">
<metadata>
Created by potrace 1.16, written by Peter Selinger 2001-2019
</metadata>
<g transform="translate(0.000000,100.000000) scale(0.100000,-0.100000)"
fill="#000000" stroke="none">
<path d="M415 986 c-144 -46 -230 -140 -257 -282 -6 -33 -30 -120 -55 -195
-24 -75 -41 -143 -38 -152 4 -8 24 -18 46 -22 l39 -7 0 -88 c0 -75 3 -91 22
-115 21 -27 23 -28 107 -22 l86 5 -3 -39 c-7 -69 -8 -69 259 -69 221 0 239 1
248 18 7 13 5 60 -4 143 -13 123 -13 124 11 184 59 142 80 319 50 417 -31 103
-115 184 -228 220 -70 21 -221 24 -283 4z m306 -57 c184 -86 227 -285 119
-555 -31 -79 -31 -79 -21 -177 6 -54 11 -111 11 -127 l0 -30 -215 0 c-118 0
-215 4 -215 9 0 5 3 23 6 40 6 26 11 31 35 31 22 0 29 5 29 20 0 24 -1 24
-144 8 -135 -14 -136 -14 -136 112 0 87 -8 110 -40 110 -41 1 -41 14 -2 131
22 63 42 139 46 169 17 132 90 220 226 272 71 27 228 20 301 -13z"/>
<path d="M481 775 c-82 -26 -140 -107 -141 -196 0 -36 9 -60 42 -115 31 -50
44 -85 49 -127 8 -65 27 -92 77 -114 25 -10 42 -11 72 -3 50 14 72 46 81 119
5 42 17 72 48 120 35 55 41 72 41 118 0 64 -17 108 -56 146 -58 58 -137 77
-213 52z m158 -63 c43 -32 71 -81 71 -126 0 -31 -12 -60 -45 -116 -25 -41 -45
-78 -45 -82 0 -4 -34 -8 -75 -8 -56 0 -75 3 -75 13 0 8 -19 43 -41 78 -52 80
-59 128 -27 183 13 22 35 48 49 59 53 39 135 39 188 -1z"/>
</g>
</svg>
