<?xml version="1.0" standalone="no"?>
<!DOCTYPE svg PUBLIC "-//W3C//DTD SVG 20010904//EN"
 "http://www.w3.org/TR/2001/REC-SVG-20010904/DTD/svg10.dtd">
<svg version="1.0" xmlns="http://www.w3.org/2000/svg"
 width="100.000000pt" height="100.000000pt" viewBox="0 0 100.000000 100.000000"
 preserveAspectRatio="xMidYMid meet">
<metadata>
Created by potrace 1.16, written by Peter Selinger 2001-2019
</metadata>
<g transform="translate(0.000000,100.000000) scale(0.100000,-0.100000)"
fill="#000000" stroke="none">
<path d="M77 922 c-15 -16 -17 -54 -17 -330 0 -269 2 -313 16 -326 13 -13 45
-16 192 -16 l177 0 26 -92 25 -93 204 -3 c178 -2 205 0 221 14 18 16 19 38 19
330 0 271 -2 315 -16 328 -13 13 -45 16 -192 16 l-177 0 -24 84 c-12 46 -28
89 -34 95 -7 7 -76 11 -207 11 -178 0 -198 -2 -213 -18z m397 -39 c26 -88 166
-583 166 -588 0 -3 -120 -4 -267 -3 l-268 3 -3 290 c-1 159 0 295 3 302 3 10
49 13 184 13 162 0 180 -2 185 -17z m421 -478 l0 -300 -162 -3 c-135 -2 -162
0 -157 11 3 9 14 12 30 9 21 -4 24 -1 24 28 0 22 10 44 30 67 31 35 36 56 21
96 -7 18 -5 26 10 36 17 10 25 8 50 -10 16 -11 48 -23 70 -26 36 -5 41 -4 38
12 -2 10 -16 22 -30 25 -14 4 -38 15 -52 25 -24 15 -25 19 -12 38 7 12 19 43
26 70 10 43 14 47 41 47 23 0 29 4 26 18 -3 14 -16 18 -66 20 -54 3 -62 6 -62
22 0 13 -7 20 -20 20 -13 0 -20 -7 -20 -20 0 -15 -7 -20 -25 -20 -15 0 -28 -7
-32 -17 -4 -10 -15 12 -29 63 -13 43 -24 82 -24 87 0 4 73 6 163 5 l162 -3 0
-300z"/>
<path d="M309 693 c-44 -116 -80 -235 -75 -249 10 -26 30 -10 47 37 16 41 19
44 54 44 35 0 38 -3 54 -44 16 -46 37 -63 46 -39 3 7 -14 72 -38 143 -46 138
-67 163 -88 108z"/>
</g>
</svg>
