<?xml version="1.0" encoding="utf-8"?>
<!-- Generator: Adobe Illustrator 23.0.1, SVG Export Plug-In . SVG Version: 6.00 Build 0)  -->
<svg version="1.1" id="Layer_1" xmlns="http://www.w3.org/2000/svg" xmlns:xlink="http://www.w3.org/1999/xlink" x="0px" y="0px"
	 viewBox="0 0 40 40" style="enable-background:new 0 0 40 40;" xml:space="preserve">
<style type="text/css">
	.st0{fill:#000949;}
</style>
<g>
	<path class="st0" d="M19,22.2c2.2,0,4-1.8,4-4v-8c0-2.2-1.8-4-4-4s-4,1.8-4,4v8C15,20.4,16.8,22.2,19,22.2z M16.6,10.6
		c0-1.6,1.2-2.8,2.6-2.8c0,0,0,0,0.1,0c0.2,0,0.3,0.3,0.1,0.5c-0.7,0.5-1.2,1.4-1.2,2.4v7.1c0,1,0.5,1.9,1.2,2.4
		c0.2,0.1,0.1,0.4-0.1,0.5c0,0,0,0-0.1,0c-1.4,0-2.6-1.3-2.6-2.8L16.6,10.6z"/>
	<path class="st0" d="M19,31.8c2.2,0,4-1.8,4-4s-1.8-4-4-4s-4,1.8-4,4S16.8,31.8,19,31.8z M18.9,25.4C18.9,25.4,19,25.4,18.9,25.4
		c0.3,0,0.4,0.3,0.2,0.4c-0.6,0.4-1,1.2-1,2c0,0.8,0.4,1.5,1,2c0.2,0.1,0.1,0.4-0.1,0.4h0c-1.4,0-2.5-1.1-2.4-2.5
		C16.7,26.5,17.7,25.4,18.9,25.4z"/>
</g>
</svg>
