<?xml version="1.0" encoding="utf-8"?>
<!-- Generator: Adobe Illustrator 23.0.1, SVG Export Plug-In . SVG Version: 6.00 Build 0)  -->
<svg version="1.1" id="Layer_1" xmlns="http://www.w3.org/2000/svg" xmlns:xlink="http://www.w3.org/1999/xlink" x="0px" y="0px"
	 viewBox="0 0 40 40" style="enable-background:new 0 0 40 40;" xml:space="preserve">
<style type="text/css">
	.st0{fill:#000949;}
</style>
<g>
	<g>
		<g>
			<path class="st0" d="M38.4,20.8l-5.3-5.3V9.3c0-1.1-0.9-2-2-2c-1.1,0-2,0.9-2,2v2.1l-3.9-3.9c-2-2-5.3-1.9-7.3,0L4.6,20.8
				c-0.8,0.8-0.8,2.1,0,2.8c0.8,0.8,2.1,0.8,2.8,0l13.3-13.3c0.4-0.4,1.2-0.4,1.6,0l13.3,13.3c0.4,0.4,0.9,0.6,1.4,0.6
				c0.5,0,1-0.2,1.4-0.6C39.2,22.8,39.2,21.6,38.4,20.8z"/>
			<path class="st0" d="M22.2,14.2c-0.4-0.4-1-0.4-1.4,0L9.1,25.8C9,26,8.8,26.3,8.8,26.5V35c0,2,1.6,3.6,3.6,3.6h5.8v-8.9h6.5v8.9
				h5.8c2,0,3.6-1.6,3.6-3.6v-8.5c0-0.3-0.1-0.5-0.3-0.7L22.2,14.2z"/>
		</g>
	</g>
</g>
</svg>
