<?xml version="1.0" encoding="utf-8"?>
<!-- Generator: Adobe Illustrator 23.0.1, SVG Export Plug-In . SVG Version: 6.00 Build 0)  -->
<svg version="1.1" id="Layer_1" xmlns="http://www.w3.org/2000/svg" xmlns:xlink="http://www.w3.org/1999/xlink" x="0px" y="0px"
	 viewBox="0 0 40 40" style="enable-background:new 0 0 40 40;" xml:space="preserve">
<style type="text/css">
	.st0{fill:#000949;}
</style>
<g id="Page-1">
	<g>
		<path id="Shape" class="st0" d="M28.7,19.2c0.2-0.2,0.2-0.5,0-0.7c-2.3-3.4-6.4-5.1-10.4-4.2s-7.1,4.1-7.7,8.2
			c0,0.3-0.3,0.5-0.5,0.5H8.8l2.3,2.8l2.3-2.8h-1c-0.2,0-0.3-0.1-0.4-0.2s-0.1-0.3-0.1-0.5c0.7-3.5,3.5-6.2,7-6.9s7.1,0.8,9.1,3.8
			c0.1,0.2,0.3,0.2,0.4,0.3C28.4,19.4,28.6,19.4,28.7,19.2"/>
		<path class="st0" d="M32.2,25.8h-1.4c-0.3,0-0.5,0.2-0.5,0.4c-0.8,3.8-3.8,6.9-7.7,7.7c-3.9,0.8-7.8-0.7-10.1-3.9
			c-0.1-0.2-0.1-0.4,0-0.6c0,0,0,0,0,0c0.1-0.1,0.3-0.2,0.5-0.2c0.2,0,0.3,0.1,0.4,0.2c0.3,0.5,0.7,0.9,1.1,1.3c0,0,0,0,0,0
			c3.4,3.2,8.7,3.2,12.1,0l0,0c1.2-1.1,2.1-2.5,2.5-4.1c0-0.2,0-0.3-0.1-0.5c-0.1-0.1-0.3-0.2-0.4-0.2h-0.9l2.3-2.8L32.2,25.8z"/>
		<path class="st0" d="M4.9,28c0,0.9,0.7,1.7,1.7,1.7h4.6c0-0.4,0.1-0.8,0.4-1.1c0,0,0,0,0,0c0.3-0.4,0.8-0.6,1.3-0.6
			c0.5,0,1,0.3,1.3,0.7c0.3,0.3,0.5,0.7,0.9,1h10.8c0.8-0.8,1.4-1.7,1.8-2.8c-0.4,0-0.9-0.3-1-0.7c-0.2-0.4-0.1-0.9,0.2-1.2
			c1.7-2.1,1-1.2,2.2-2.7c0.2-0.3,0.5-0.4,0.9-0.4c0.3,0,0.7,0.2,0.9,0.4L33,25c0.3,0.3,0.3,0.8,0.2,1.2s-0.6,0.7-1,0.7h-0.9
			c-0.3,1-0.6,1.9-1.1,2.8h4.3c0.9,0,1.7-0.7,1.7-1.7V9.7H4.9V28z M34.3,14.7h-4.4c-0.3,0-0.6-0.2-0.6-0.6c0-0.3,0.2-0.6,0.6-0.6
			h4.4c0.3,0,0.6,0.2,0.6,0.6C34.9,14.4,34.6,14.7,34.3,14.7z M33.2,11.3h1.1c0.3,0,0.6,0.2,0.6,0.6c0,0.3-0.2,0.6-0.6,0.6h-1.1
			c-0.3,0-0.6-0.2-0.6-0.6C32.7,11.6,32.9,11.3,33.2,11.3z M26,11.3h5c0.3,0,0.6,0.2,0.6,0.6c0,0.3-0.2,0.6-0.6,0.6h-5
			c-0.3,0-0.6-0.2-0.6-0.6C25.5,11.6,25.7,11.3,26,11.3z M29.7,17.9c0.4,0.6,0.4,1.4-0.1,2l0,0c-0.3,0.4-0.8,0.6-1.4,0.6
			c-0.5,0-1-0.3-1.3-0.7c-1.7-2.5-4.6-3.8-7.6-3.3c-3,0.5-5.4,2.6-6.3,5.5h0.2c0.4,0,0.8,0.3,1,0.7c0.2,0.4,0.1,0.9-0.2,1.2
			l-2.2,2.7c-0.2,0.3-0.5,0.4-0.9,0.4s-0.7-0.2-0.9-0.4L8,23.8c-0.3-0.3-0.3-0.8-0.2-1.2c0.2-0.4,0.6-0.7,1-0.7h0.8
			c0.9-4.4,4.3-7.8,8.7-8.7C22.7,12.4,27.2,14.2,29.7,17.9L29.7,17.9z M9.9,11.3h5c0.3,0,0.6,0.2,0.6,0.6s-0.2,0.6-0.6,0.6h-5
			c-0.3,0-0.6-0.2-0.6-0.6S9.6,11.3,9.9,11.3z M6.6,11.3h1.1c0.3,0,0.6,0.2,0.6,0.6S8,12.5,7.7,12.5H6.6c-0.3,0-0.6-0.2-0.6-0.6
			S6.3,11.3,6.6,11.3z M6.6,13.6H11c0.3,0,0.6,0.2,0.6,0.6c0,0.3-0.2,0.6-0.6,0.6H6.6c-0.3,0-0.6-0.2-0.6-0.6
			C6.1,13.8,6.3,13.6,6.6,13.6z"/>
		<path class="st0" d="M24.5,30.8h-7.9C19,32.2,22,32.2,24.5,30.8z"/>
		<path class="st0" d="M34.3,5.2H6.6C5.7,5.2,4.9,6,4.9,6.9v1.7H36V6.9C36,6,35.3,5.2,34.3,5.2z M6.6,7.5c-0.3,0-0.6-0.2-0.6-0.6
			c0-0.3,0.2-0.6,0.6-0.6s0.6,0.2,0.6,0.6C7.2,7.2,6.9,7.5,6.6,7.5z M8.8,7.5c-0.3,0-0.6-0.2-0.6-0.6c0-0.3,0.2-0.6,0.6-0.6
			s0.6,0.2,0.6,0.6C9.4,7.2,9.1,7.5,8.8,7.5z M11,7.5c-0.3,0-0.6-0.2-0.6-0.6c0-0.3,0.2-0.6,0.6-0.6c0.3,0,0.6,0.2,0.6,0.6
			C11.6,7.2,11.4,7.5,11,7.5z M22.1,7.5h-3.3c-0.3,0-0.6-0.2-0.6-0.6c0-0.3,0.2-0.6,0.6-0.6h3.3c0.3,0,0.6,0.2,0.6,0.6
			C22.7,7.2,22.4,7.5,22.1,7.5z M34.3,7.5h-6.1c-0.3,0-0.6-0.2-0.6-0.6c0-0.3,0.2-0.6,0.6-0.6h6.1c0.3,0,0.6,0.2,0.6,0.6
			C34.9,7.2,34.6,7.5,34.3,7.5z"/>
	</g>
</g>
</svg>
