<?xml version="1.0" encoding="utf-8"?>
<!-- Generator: Adobe Illustrator 23.0.1, SVG Export Plug-In . SVG Version: 6.00 Build 0)  -->
<svg version="1.1" id="Layer_1" xmlns="http://www.w3.org/2000/svg" xmlns:xlink="http://www.w3.org/1999/xlink" x="0px" y="0px"
	 viewBox="0 0 40 40" style="enable-background:new 0 0 40 40;" xml:space="preserve">
<style type="text/css">
	.st0{fill:#000949;}
</style>
<g>
	<path class="st0" d="M3.9,21h7.5v4.4H3.9V21z"/>
	<path class="st0" d="M3.9,17.3v1.9h7.5v-2.8H4.8C4.3,16.3,3.9,16.7,3.9,17.3z"/>
	<path class="st0" d="M3.9,35.2c0,0.5,0.4,0.9,0.9,0.9h1.9v-8.8H3.9V35.2z"/>
	<path class="st0" d="M8.6,27.3h2.8v8.8H8.6V27.3z"/>
	<path class="st0" d="M34.9,16.3h-6.6v2.8h7.5v-1.9C35.9,16.7,35.4,16.3,34.9,16.3z"/>
	<path class="st0" d="M28.3,21h7.5v4.4h-7.5V21z"/>
	<path class="st0" d="M28.3,35.2v0.9h2.8v-8.8h-2.8V35.2z"/>
	<path class="st0" d="M33,36.1h1.9c0.5,0,0.9-0.4,0.9-0.9v-7.8H33V36.1z"/>
	<path class="st0" d="M20.8,29.7v6.4h1.9v-3.8C22.7,31.1,21.9,30.1,20.8,29.7L20.8,29.7z"/>
	<path class="st0" d="M17,32.3v3.8h1.9v-6.4C17.8,30.1,17,31.1,17,32.3z"/>
	<path class="st0" d="M25.9,14.1l-5.1-3.9V8.7h0.6c2.1,0,3.8-1.7,3.8-3.8c0-0.5-0.4-1-0.9-1h-4.4c-0.5,0-0.9,0.4-0.9,0.9v3.8v1.5
		l-5.1,3.9c-0.3,0.2-0.5,0.6-0.5,1v21h1.9v-3.8c0-2.6,2.1-4.7,4.7-4.7s4.7,2.1,4.7,4.7v3.8h1.9v-21C26.5,14.7,26.3,14.3,25.9,14.1z
		 M17,24.3c0,0.5-0.4,0.9-0.9,0.9c-0.5,0-0.9-0.4-0.9-0.9v-1.9c0-0.5,0.4-0.9,0.9-0.9c0.5,0,0.9,0.4,0.9,0.9V24.3z M20.8,24.3
		c0,0.5-0.4,0.9-0.9,0.9c-0.5,0-0.9-0.4-0.9-0.9v-1.9c0-0.5,0.4-0.9,0.9-0.9c0.5,0,0.9,0.4,0.9,0.9V24.3z M19.9,19.8
		c-1.6,0-2.8-1.3-2.8-2.8s1.3-2.8,2.8-2.8s2.8,1.3,2.8,2.8S21.4,19.8,19.9,19.8z M24.6,24.3c0,0.5-0.4,0.9-0.9,0.9
		c-0.5,0-0.9-0.4-0.9-0.9v-1.9c0-0.5,0.4-0.9,0.9-0.9c0.5,0,0.9,0.4,0.9,0.9V24.3z"/>
	<circle class="st0" cx="19.9" cy="17" r="0.9"/>
</g>
</svg>
